# xmcd CD database file
#
# Track frame offsets:
#	150
#	21950
#	41700
#	65040
#	85472
#	108827
#	127420
#	145467
#	172887
#	189395
#	209032
#
# Disc length: 3019 seconds
#
# Revision: 3
# Processed by: cddbd v1.5.1PL0 Copyright (c) Steve Scherf et al.
# Submitted via: CDex 1.51
#
DISCID=ab0bc90b
DTITLE=Tone-Loc - Loc-Ed After Dark
DYEAR=1987
DGENRE=Rap
TTITLE0=On Fire (Remix)
TTITLE1=Wild Thing
TTITLE2=Loc'Ed After Dark
TTITLE3=I Got It Goin' On
TTITLE4=Cutting Rhythms
TTITLE5=Funky Cold Medina
TTITLE6=Next Episode
TTITLE7=Cheeba Cheeba
TTITLE8=Don't Get Close
TTITLE9=Loc'In On The Shaw
TTITLE10=The Homies
EXTD=\n\n YEAR: 1987
EXTT0=
EXTT1=
EXTT2=
EXTT3=
EXTT4=
EXTT5=
EXTT6=
EXTT7=
EXTT8=
EXTT9=
EXTT10=
PLAYORDER=
